<svg xmlns="http://www.w3.org/2000/svg" width="32" height="32" fill="none" viewBox="0 0 32 32"><g stroke="#fff" stroke-linecap="round" stroke-linejoin="round" stroke-width="3.4" opacity=".98"><path d="M16 2.2v6.2m-2.9-3.1L16 2.4l2.9 2.9M29.8 16h-6.2m3.1-2.9 2.9 2.9-2.9 2.9M16 29.8v-6.2m-2.9 3.1 2.9 2.9 2.9-2.9M2.2 16h6.2m-3.1-2.9L2.4 16l2.9 2.9"/><circle cx="13.55" cy="13.35" r="6.05"/><path d="M18.65 18.45 25 24.8M10.4 10.2q1.35-1.35 3.35-.95"/></g><g stroke="#e11d48" stroke-linecap="round" stroke-linejoin="round" stroke-width="1.35"><path d="M16 2.2v6.2m-2.9-3.1L16 2.4l2.9 2.9M29.8 16h-6.2m3.1-2.9 2.9 2.9-2.9 2.9M16 29.8v-6.2m-2.9 3.1 2.9 2.9 2.9-2.9M2.2 16h6.2m-3.1-2.9L2.4 16l2.9 2.9"/></g><circle cx="13.55" cy="13.35" r="6.05" fill="#fff"/><g stroke="#2563eb" stroke-linecap="round" stroke-linejoin="round" stroke-width="1.65"><circle cx="13.55" cy="13.35" r="6.05"/><path d="M18.65 18.45 25 24.8"/></g><path stroke="#93c5fd" stroke-linecap="round" stroke-width="1.05" d="M10.4 10.2q1.35-1.35 3.35-.95"/></svg>